<svg fill="none" height="32" viewBox="0 0 32 32" width="32" xmlns="http://www.w3.org/2000/svg"><path d="m0 16c0-8.83656 7.16344-16 16-16 8.8366 0 16 7.16344 16 16 0 8.8366-7.1634 16-16 16-8.83656 0-16-7.1634-16-16z" fill="#000b1d"/><g fill="#fff"><path d="m18.2157 15.244 1.3088.0386.0145 6.8959c0 .1114.0493.1672.1486.1672h2.1146c.0745 0 .1209-.0186.1395-.0558.0178-.0344.0273-.0726.0277-.1114l-.0145-6.8959h1.8151c.1114.0001.1672-.0432.1672-.13v-1.6351c.0027-.0391-.0071-.0782-.028-.1114-.0186-.0248-.0652-.0371-.1392-.0371h-1.8151v-.7428c-.0104-.2807.0306-.5608.1208-.8267.0653-.1866.1977-.3423.3715-.4366.2351-.0897.4852-.1339.7369-.13h.2785c.099 0 .3018.0063.3885.0186.0992.0248.1488-.0061.1488-.0929v-1.83914c.001-.0408-.0111-.08084-.0345-.11426s-.0569-.05846-.0956-.07145c-.1751-.05226-.3551-.08652-.5372-.10223-.1789-.01947-.3588-.02876-.5388-.02782-.6422-.03137-1.2783.13737-1.8205.48294-.454.31706-.8186.74566-1.0588 1.24466-.1407.298-.2407.6135-.2974.9382-.0644.552-.0953 1.1073-.0926 1.6631v.0364l-1.3088-.0144c-.0177-.0025-.0357-.0009-.0526.0048-.017.0056-.0323.0151-.045.0277-.0126.0127-.0221.028-.0278.045-.0056.0169-.0073.0349-.0048.0526v1.6293c0 .0742.0434.1177.1302.13z"/><path clip-rule="evenodd" d="m8 10.2575v11.8705c0 .099.04339.1486.13019.1486h2.17401c.0227.0032.0459.0011.0676-.0062.0218-.0072.0415-.0195.0578-.0357.0162-.0162.0284-.036.0357-.0577.0072-.0218.0093-.0449.0061-.0676v-3.6596c.2228 0 .39.0032.5016.0093.1111.0062.303.0093.5756.0093.8861.0115 1.767-.1364 2.6008-.4366.748-.2665 1.3964-.756 1.8575-1.4025.4819-.7245.7225-1.5827.6874-2.4521.0017-.5099-.0863-1.0161-.2599-1.4955-.1837-.4925-.4721-.9393-.8453-1.3095-.4402-.4272-.9702-.7509-1.5513-.9474-.7662-.2543-1.5707-.3738-2.3777-.3531-.3466.0001-.6965.0032-1.0495.0094-.353.0063-.68735.0125-1.0031.0186-.316.0062-.61018.0124-.88254.0185-.27261.0064-.4156.0093-.61342.0093-.07428 0-.11154.0435-.11154.13zm2.4714 5.9445v-3.8454c.0863-.0121.2442-.0214.4737-.0278.2291-.0062.4922-.0093.7894-.0093.463-.0146.9243.0644 1.3561.2323.3307.1316.6128.3619.808.6594.1858.3078.2793.6624.2694 1.0217.0258.4269-.1027.8488-.3621 1.1889-.2506.2909-.5796.5038-.9477.6131-.4306.1297-.8786.1923-1.3282.1857h-.6129c-.1363.0001-.2849-.0061-.4457-.0186z" fill-rule="evenodd"/></g></svg>